<svg version="1.1" id="Layer_1" xmlns="http://www.w3.org/2000/svg" xmlns:xlink="http://www.w3.org/1999/xlink" x="0px" y="0px"
	 width="100%" viewBox="0 0 1024 394" enable-background="new 0 0 1024 394" xml:space="preserve">
<path fill="#FEFFFF" opacity="1.000000" stroke="none" 
	d="
M794.000000,395.000000 
	C529.333313,395.000000 265.166656,395.000000 1.000000,395.000000 
	C1.000000,263.666656 1.000000,132.333328 1.000000,1.000000 
	C342.333344,1.000000 683.666687,1.000000 1025.000000,1.000000 
	C1025.000000,132.333328 1025.000000,263.666656 1025.000000,395.000000 
	C948.166687,395.000000 871.333313,395.000000 794.000000,395.000000 
M297.500000,368.998566 
	C330.915100,368.998566 364.330170,368.998566 397.592957,368.998566 
	C397.592957,253.240845 397.592957,138.204681 397.592957,23.273575 
	C272.936890,23.273575 148.686569,23.273575 24.318604,23.273575 
	C24.318604,138.581482 24.318604,253.617371 24.318604,368.568634 
	C24.938856,368.756439 25.245186,368.930420 25.551567,368.930542 
	C115.867706,368.961121 206.183853,368.979706 297.500000,368.998566 
M538.159058,176.644348 
	C539.642761,177.434204 541.065613,178.715652 542.623169,178.908310 
	C545.575562,179.273499 548.643372,178.713226 551.593689,179.086655 
	C555.809326,179.620270 557.689026,177.839081 559.170410,174.002548 
	C563.142761,163.714706 563.381592,164.423569 574.156067,163.581573 
	C582.408569,162.936661 586.925720,165.318726 589.404541,173.409164 
	C591.460815,180.120361 592.302307,179.995773 599.963806,178.231918 
	C592.773560,162.093124 585.673096,145.989059 578.353455,129.985291 
	C577.623840,128.390106 575.754822,126.847206 574.072571,126.259926 
	C571.101807,125.222847 570.203186,127.805168 569.273193,130.004257 
	C564.157349,142.100632 559.020752,154.188263 553.864929,166.267624 
	C552.317200,169.893692 550.684509,173.483490 548.816711,177.709991 
	C543.052124,169.375885 537.722412,161.670410 532.299194,153.829819 
	C532.833191,153.401459 533.619629,152.813889 534.358337,152.171463 
	C542.783508,144.844162 540.627808,131.102097 529.953247,128.061676 
	C523.317200,126.171516 516.028198,126.573982 508.802277,125.926888 
	C508.802277,144.332520 508.802277,161.427216 508.802277,178.736954 
	C511.480743,178.736954 513.885010,178.736954 516.982971,178.736954 
	C516.982971,171.282150 516.982971,164.083160 516.982971,157.057800 
	C522.255676,155.904053 525.469360,158.234985 527.930176,161.570343 
	C531.381470,166.248093 534.496155,171.174179 538.159058,176.644348 
M598.070435,222.540085 
	C599.469666,220.831635 600.868896,219.123199 602.583801,217.029282 
	C596.450012,215.682098 592.218201,216.210052 588.846985,221.312851 
	C585.514038,226.357742 581.208435,230.760010 577.016113,235.822586 
	C572.572510,230.421585 568.229980,225.799469 564.675354,220.635086 
	C561.246521,215.653564 556.972778,215.976944 551.476990,216.981155 
	C552.816711,218.703888 553.775146,220.002792 554.801941,221.245255 
	C559.679077,227.146973 564.663513,232.963837 569.384338,238.987534 
	C570.262573,240.108170 570.934875,242.690994 570.301392,243.494232 
	C564.042114,251.430649 557.487305,259.133972 550.617310,267.382111 
	C543.369751,251.138275 536.392395,235.568787 529.495056,219.963928 
	C528.511414,217.738434 527.638916,215.225098 524.698853,216.261703 
	C523.006653,216.858337 521.106873,218.410736 520.400085,220.016785 
	C513.906128,234.772293 507.646484,249.631073 501.341034,264.469269 
	C500.783722,265.780670 500.385834,267.159821 499.913940,268.507507 
	C500.232697,268.985352 500.551422,269.463196 500.870178,269.941071 
	C503.577484,268.819031 508.327240,268.125580 508.666901,266.506744 
	C511.234863,254.268005 519.236633,252.110718 529.827454,253.782959 
	C529.989929,253.808609 530.165222,253.813400 530.325623,253.782211 
	C534.705994,252.930283 537.267273,254.846085 538.227783,259.060699 
	C540.125793,267.388580 545.127930,270.217957 553.625916,269.243713 
	C557.940491,268.749054 560.925293,267.812744 563.568970,264.288727 
	C567.708069,258.771484 572.389832,253.661438 577.076904,248.099838 
	C581.707764,253.682022 586.310364,258.361938 589.850098,263.741211 
	C593.387451,269.116852 597.766418,269.897675 603.789185,268.494049 
	C602.633545,266.950897 601.718872,265.626129 600.700256,264.386749 
	C595.521973,258.085999 590.458191,251.682312 585.058167,245.576553 
	C582.551453,242.742203 582.621887,240.837875 585.164978,238.063751 
	C589.545105,233.285767 593.487366,228.106430 598.070435,222.540085 
M624.746094,312.695312 
	C624.526611,312.247406 624.326721,311.788635 624.084290,311.353485 
	C622.810608,309.066925 622.837708,305.839691 618.669189,306.018188 
	C614.801880,306.183838 614.791687,309.121490 613.817261,311.366669 
	C607.733826,325.383087 601.739380,339.438080 596.003296,352.809296 
	C594.082275,352.327118 592.522095,351.645081 590.941345,351.593353 
	C586.285095,351.441040 581.593445,351.224426 576.967285,351.626801 
	C572.366394,352.027008 571.386597,350.199432 571.485107,345.945374 
	C571.754883,334.298645 571.476624,322.640198 571.641663,310.989594 
	C571.689087,307.641663 570.871887,306.263519 567.230164,306.300446 
	C563.684204,306.336456 563.186523,307.888885 563.208435,310.881653 
	C563.317139,325.696747 563.249512,340.513062 563.277222,355.328888 
	C563.279297,356.444427 563.540405,357.559509 563.724243,359.016479 
	C575.074402,359.016479 586.208679,358.853607 597.333191,359.110413 
	C600.923523,359.193298 602.586304,357.989380 603.898682,354.724976 
	C608.314758,343.740356 608.496765,344.483856 619.875244,343.557281 
	C628.025513,342.893616 632.322510,345.738831 634.091492,353.211456 
	C635.515747,359.227722 639.432556,359.976471 645.041870,358.469604 
	C638.350708,343.400665 631.689636,328.399628 624.746094,312.695312 
M581.316345,83.345146 
	C584.799133,90.427231 590.828979,85.534416 596.183228,86.071541 
	C591.091553,77.310593 585.999817,68.549644 580.802612,59.607246 
	C587.635803,56.203506 589.325073,49.674000 587.847168,42.225910 
	C586.625061,36.066666 582.093201,31.903740 576.174133,31.320318 
	C567.661743,30.481277 559.005066,31.106098 550.215210,31.106098 
	C550.215210,49.480110 550.215210,68.035744 550.215210,86.718536 
	C553.919922,86.718536 557.323425,86.718536 561.212219,86.718536 
	C561.212219,79.011963 561.212219,71.583481 561.212219,64.157784 
	C566.297485,62.620144 569.948181,64.226067 572.420532,68.031792 
	C575.494995,72.764359 578.142761,77.774139 581.316345,83.345146 
M673.566345,77.994423 
	C672.407593,80.826721 671.248779,83.659019 669.878662,87.007896 
	C673.390381,87.007896 676.059753,86.840042 678.697937,87.055161 
	C681.329712,87.269760 682.887756,86.273300 683.335571,83.743591 
	C684.905518,74.874474 690.193115,71.700111 698.808044,73.476601 
	C699.287537,73.575478 699.823486,73.576897 700.302246,73.476395 
	C708.897034,71.672348 714.121033,74.910927 716.140198,83.594391 
	C716.449768,84.925697 718.279602,86.629715 719.619812,86.847542 
	C722.630676,87.336884 725.775696,87.000923 728.956238,87.000923 
	C728.906921,85.908104 729.024841,85.362648 728.843079,84.948807 
	C721.216980,67.585770 713.555115,50.238445 705.920593,32.879082 
	C703.870544,28.217695 699.797791,31.067110 696.693604,30.357893 
	C693.837952,29.705469 692.672058,31.435797 691.678711,33.896191 
	C685.825562,48.393822 679.820740,62.830227 673.566345,77.994423 
M530.327148,84.398598 
	C533.671875,89.800064 538.685364,85.553268 543.626526,87.585022 
	C542.722534,85.050903 542.320618,83.658020 541.742065,82.342827 
	C534.709839,66.356888 527.418091,50.479053 520.736084,34.348522 
	C518.613708,29.225164 514.936584,30.743000 511.383392,30.263418 
	C507.742432,29.771986 506.496674,31.749016 505.326172,34.639744 
	C498.772186,50.825924 492.077057,66.954910 485.456299,83.114166 
	C484.993164,84.244621 484.741425,85.461708 484.281464,87.007851 
	C487.439880,87.007851 490.180054,87.408348 492.719666,86.867317 
	C494.417938,86.505524 496.912720,85.030449 497.196350,83.667557 
	C499.042603,74.795967 504.282318,71.741104 512.853149,73.472397 
	C513.493408,73.601730 514.182556,73.489380 514.848938,73.489380 
	C525.727356,73.489388 525.727356,73.489388 530.327148,84.398598 
M630.210754,35.658516 
	C625.180115,42.012661 620.149475,48.366806 615.118896,54.720947 
	C614.696899,54.478767 614.274963,54.236584 613.853027,53.994404 
	C613.853027,46.246525 613.853027,38.498650 613.853027,30.695652 
	C610.027893,30.695652 606.633789,30.695652 603.281494,30.695652 
	C603.281494,49.619804 603.281494,68.172028 603.281494,86.658348 
	C607.055359,86.658348 610.459595,86.658348 614.293457,86.658348 
	C614.293457,78.093063 614.293457,69.870621 614.293457,60.339172 
	C621.437378,68.036812 628.352295,74.344215 633.835083,81.716675 
	C639.332397,89.108597 646.064697,86.535393 654.000549,87.011185 
	C644.327576,76.355682 635.641907,66.787766 626.832031,57.082958 
	C633.737549,48.289753 640.423706,39.775848 647.792175,30.393152 
	C640.789551,30.771608 634.379578,28.019897 630.210754,35.658516 
M784.016907,30.487148 
	C783.649841,31.505409 782.966309,32.522602 782.962830,33.542091 
	C782.904968,50.691593 782.926758,67.841393 782.960754,84.991074 
	C782.961914,85.593231 783.270813,86.194786 783.397461,86.655350 
	C795.731934,86.655350 807.796631,86.655350 819.869507,86.655350 
	C819.869507,83.690788 819.869507,81.086952 819.869507,77.815674 
	C811.275513,77.815674 802.905945,77.815674 794.466248,77.815674 
	C794.466248,72.553688 794.466248,67.965530 794.466248,62.799431 
	C801.181580,62.799431 807.638306,62.575867 814.069641,62.882542 
	C817.983154,63.069153 819.184692,61.540867 818.703674,57.964863 
	C818.531677,56.687077 818.482544,55.392776 818.314819,53.340988 
	C810.256104,53.340988 802.403564,53.340988 794.470520,53.340988 
	C794.470520,48.458969 794.470520,44.371532 794.470520,39.556946 
	C802.947754,39.556946 811.159363,39.556946 819.241211,39.556946 
	C820.512390,30.317144 820.512390,30.312353 812.401184,30.317387 
	C803.243652,30.323071 794.086060,30.338512 784.016907,30.487148 
M446.916840,62.499992 
	C446.916840,70.576027 446.916840,78.652069 446.916840,86.670654 
	C451.038788,86.670654 454.440033,86.670654 458.348694,86.670654 
	C458.348694,78.931488 458.348694,71.519882 458.348694,64.084824 
	C463.808685,63.699688 468.818085,63.714111 473.694977,62.917404 
	C481.291992,61.676300 486.358368,55.639919 486.829559,48.084976 
	C487.310181,40.378311 482.774963,32.696697 475.303619,31.560698 
	C466.087860,30.159479 456.621735,30.404894 446.916779,29.921446 
	C446.916779,41.239731 446.916779,51.369862 446.916840,62.499992 
M465.144043,338.499817 
	C465.144043,345.253387 465.144043,352.006958 465.144043,358.730621 
	C468.185150,358.730621 470.450256,358.730621 473.197510,358.730621 
	C473.197510,345.937622 473.197510,333.411346 473.197510,319.433838 
	C479.207397,326.841125 484.323669,333.147034 489.758270,339.845276 
	C495.482574,332.775513 500.414093,326.684875 505.345612,320.594269 
	C505.671539,320.741608 505.997437,320.888977 506.323364,321.036346 
	C506.323364,333.609344 506.323364,346.182373 506.323364,358.764709 
	C509.061615,358.764709 511.332092,358.764709 513.804138,358.764709 
	C513.804138,341.319305 513.804138,324.119629 513.804138,306.968079 
	C507.066650,305.940338 507.084076,305.954315 503.362366,310.595215 
	C498.925812,316.127472 494.455444,321.632629 489.791504,327.407318 
	C484.838104,321.313019 480.060791,315.959442 475.915039,310.154816 
	C473.041107,306.130920 469.744598,305.796326 465.144135,307.106628 
	C465.144135,317.271454 465.144135,327.385681 465.144043,338.499817 
M495.112518,239.500031 
	C495.112518,231.922745 495.112518,224.345459 495.112518,216.881927 
	C487.954865,216.071045 487.975769,216.087799 484.236664,220.752853 
	C479.887085,226.179504 475.496063,231.572952 470.799164,237.381317 
	C465.981171,231.464066 461.224792,226.151367 457.104553,220.384186 
	C454.146942,216.244385 450.828033,215.539917 446.429932,217.128616 
	C446.429932,234.371078 446.429932,251.448792 446.429932,268.659973 
	C449.101349,268.659973 451.480560,268.659973 454.361145,268.659973 
	C454.361145,255.813477 454.361145,243.307770 454.361145,229.719452 
	C460.195312,236.827698 465.291992,243.037384 470.820801,249.773560 
	C476.368683,242.910370 481.312866,236.794022 487.082275,229.656799 
	C487.082275,243.469879 487.082275,255.998322 487.082275,268.692322 
	C489.974182,268.692322 492.356232,268.692322 495.112579,268.692322 
	C495.112579,259.086761 495.112579,249.793381 495.112518,239.500031 
M450.061096,135.607971 
	C441.855438,146.423370 442.039978,160.713043 450.511627,170.496078 
	C458.994965,180.292603 475.637939,182.607651 487.567230,175.650543 
	C498.592163,169.220917 503.192535,156.358521 499.009979,143.657211 
	C492.659943,124.373749 465.604279,119.579147 450.061096,135.607971 
M713.841492,266.841766 
	C727.960632,272.624298 743.572571,268.978729 750.967163,257.876556 
	C756.912048,248.950806 757.210266,239.325195 752.296448,230.009613 
	C746.877686,219.736572 737.625671,215.674316 726.218933,215.914154 
	C713.478577,216.182037 703.130920,223.707321 700.097656,235.085587 
	C696.648987,248.022217 701.555054,259.785309 713.841492,266.841766 
M740.641968,42.835468 
	C739.221191,39.644600 737.921936,36.390785 736.317444,33.295151 
	C735.711304,32.125675 734.482300,30.610979 733.394470,30.484886 
	C730.171570,30.111296 726.877502,30.351196 722.998840,30.351196 
	C723.822693,32.438461 724.298767,33.801659 724.888123,35.113941 
	C732.249451,51.502197 739.575378,67.906921 747.087463,84.225922 
	C747.773376,85.715965 749.569214,87.352699 751.056213,87.582001 
	C752.025818,87.731506 753.839966,85.666115 754.473145,84.237259 
	C761.750854,67.814568 768.883057,51.327282 776.022705,34.843674 
	C776.566895,33.587368 776.873901,32.228321 777.326355,30.806425 
	C766.160095,29.366743 766.159424,29.366446 762.223206,38.532307 
	C761.173157,40.977604 760.136536,43.428696 759.080505,45.871403 
	C756.364746,52.153378 753.641602,58.432148 750.579712,65.501083 
	C747.078796,57.531593 744.004883,50.534077 740.641968,42.835468 
M692.407654,358.823639 
	C694.509277,358.823639 696.610901,358.823639 698.792725,358.823639 
	C698.792725,341.253845 698.792725,324.059967 698.792725,306.769958 
	C696.339966,306.769958 694.255981,306.769958 691.568237,306.769958 
	C691.568237,319.603607 691.568237,332.126068 691.568237,346.248718 
	C689.856506,344.144531 689.165466,343.245148 688.423157,342.390289 
	C679.037964,331.582245 669.558289,320.854279 660.310791,309.929749 
	C657.736145,306.888214 655.095093,305.543732 651.091675,307.023315 
	C651.091675,324.226898 651.091675,341.421265 651.091675,358.730530 
	C653.506958,358.730530 655.582031,358.730530 658.212402,358.730530 
	C658.212402,345.979950 658.212402,333.487030 658.212402,319.915070 
	C669.924866,333.315582 680.852661,345.818298 692.407654,358.823639 
M804.724426,233.158691 
	C799.716980,244.888443 794.709534,256.618195 789.670532,268.421814 
	C795.140442,269.921631 798.402893,269.169525 800.419861,263.524048 
	C803.947327,253.650681 804.393494,254.454803 815.194031,253.576233 
	C823.517700,252.899155 827.929626,255.444626 830.415710,263.452118 
	C832.468445,270.063995 833.472229,270.033600 840.917725,268.198120 
	C833.558472,251.600601 826.266174,235.031387 818.784363,218.548172 
	C818.269958,217.414963 816.296753,216.235306 815.080688,216.312836 
	C813.638306,216.404800 811.635437,217.507278 811.003662,218.746872 
	C808.743408,223.181274 806.960449,227.858978 804.724426,233.158691 
M944.665344,254.137314 
	C946.194153,257.259308 947.790649,260.350342 949.237610,263.509857 
	C952.141968,269.851776 952.453735,270.026550 959.952515,268.197449 
	C952.767395,252.071365 945.668823,235.972626 938.350708,219.974350 
	C937.621948,218.381134 935.450439,216.286606 934.136169,216.410782 
	C932.419800,216.572952 930.140381,218.384033 929.398621,220.059265 
	C922.872742,234.797272 916.628174,249.659912 910.323853,264.495667 
	C909.769836,265.799225 909.382751,267.173737 908.918152,268.515289 
	C909.232178,269.001251 909.546204,269.487244 909.860291,269.973206 
	C912.574402,268.834625 917.334229,268.124420 917.676697,266.489166 
	C920.244324,254.228806 928.266113,252.151505 938.852173,253.759583 
	C940.482117,254.007187 942.175232,253.838745 944.665344,254.137314 
M859.598328,225.816162 
	C869.004761,221.345825 877.876831,224.797531 886.725769,228.346848 
	C887.499634,219.856613 887.575073,219.530090 880.230530,217.832748 
	C875.278931,216.688431 870.021240,215.868958 864.998962,216.239700 
	C854.793335,216.993057 847.016357,222.357498 842.830200,231.734116 
	C838.606689,241.194305 839.386658,250.533356 845.818726,259.031952 
	C853.402710,269.052490 866.345947,272.285950 881.165100,267.881714 
	C888.143433,265.807770 888.758911,264.718201 887.171204,257.104248 
	C882.832397,258.597931 878.592285,260.466614 874.157532,261.501678 
	C864.014282,263.869141 853.899841,259.068359 850.292175,250.590866 
	C846.430054,241.515472 849.622925,232.428833 859.598328,225.816162 
M549.143616,308.084320 
	C540.933716,305.162445 532.578308,306.537384 524.398193,306.575195 
	C524.398193,324.440338 524.398193,341.636292 524.398193,358.735535 
	C527.079468,358.735535 529.346375,358.735535 532.079956,358.735535 
	C532.079956,351.388489 532.079956,344.307983 532.079956,337.023193 
	C536.130920,336.703094 539.746582,336.517792 543.337463,336.112671 
	C550.800598,335.270752 555.483032,331.551727 556.855408,325.548523 
	C558.523560,318.251862 556.251282,312.705933 549.143616,308.084320 
M763.306152,260.429199 
	C763.306152,263.191833 763.306152,265.954468 763.306152,268.682617 
	C766.460999,268.682617 768.865906,268.682617 771.907593,268.682617 
	C771.907593,260.640625 771.907593,252.930893 771.907593,244.824066 
	C778.816162,244.824066 785.080688,244.824066 791.607605,244.824066 
	C791.607605,242.311035 791.607605,240.231735 791.607605,237.457703 
	C785.031677,237.457703 778.638428,237.457703 772.127625,237.457703 
	C772.127625,232.576218 772.127625,228.395157 772.127625,223.769104 
	C778.815308,223.769104 785.077026,223.769104 791.604919,223.769104 
	C791.604919,221.230896 791.604919,219.142883 791.604919,216.379471 
	C783.711731,216.379471 775.924988,216.617477 768.162903,216.284027 
	C763.970520,216.103912 763.177979,217.752029 763.234009,221.495224 
	C763.423157,234.143127 763.306396,246.795609 763.306152,260.429199 
M744.213867,313.844421 
	C750.534668,314.023621 747.187744,309.598816 747.916077,306.628510 
	C733.130554,306.628510 718.750671,306.628510 704.206055,306.628510 
	C704.206055,309.046143 704.206055,311.147583 704.206055,313.949554 
	C710.113831,313.949554 715.811157,313.949554 722.040161,313.949554 
	C722.040161,329.351624 722.040161,344.059113 722.040161,358.770264 
	C724.865967,358.770264 727.131714,358.770264 729.928711,358.770264 
	C729.928711,343.813293 729.928711,329.096710 729.928711,313.844818 
	C734.725281,313.844818 739.002625,313.844818 744.213867,313.844421 
M604.257690,165.489197 
	C604.257690,169.912140 604.257690,174.335068 604.257690,178.599487 
	C615.265198,178.599487 625.477356,178.599487 635.510620,178.599487 
	C635.510620,176.097702 635.510620,174.034164 635.510620,171.537445 
	C629.167297,171.537445 623.191162,171.323685 617.239685,171.614075 
	C613.397766,171.801544 612.374268,170.347305 612.510010,166.726181 
	C612.752869,160.247986 612.578064,153.754135 612.578003,147.266830 
	C612.577881,140.501236 612.577942,133.735641 612.577942,127.115463 
	C604.388977,125.584709 604.258850,125.686829 604.257935,133.054962 
	C604.256653,143.534454 604.257812,154.013947 604.257690,165.489197 
M628.257690,247.499832 
	C628.257690,254.583786 628.257690,261.667725 628.257690,268.602570 
	C639.260925,268.602570 649.474365,268.602570 659.513489,268.602570 
	C659.513489,266.116974 659.513489,264.051422 659.513489,261.537476 
	C653.171814,261.537476 647.197021,261.324829 641.246643,261.613800 
	C637.414490,261.799896 636.363464,260.364471 636.510315,256.733154 
	C636.758728,250.588745 636.578064,244.426987 636.578003,238.272537 
	C636.577881,231.173752 636.577942,224.074951 636.577942,217.121964 
	C628.397949,215.575668 628.259155,215.684509 628.257935,223.046448 
	C628.256592,230.864273 628.257812,238.682098 628.257690,247.499832 
M665.258606,265.220490 
	C665.926636,266.476013 666.568237,268.807709 667.266663,268.824860 
	C677.019775,269.064087 686.780640,268.987061 696.614502,268.987061 
	C696.614502,266.265137 696.614502,264.183563 696.614502,261.538208 
	C690.550659,261.538208 684.736633,261.232819 678.971924,261.635162 
	C674.385925,261.955261 673.382385,260.220398 673.484375,255.955261 
	C673.758545,244.480515 673.509460,232.994202 673.622375,221.514008 
	C673.653809,218.319916 673.542542,216.192108 669.257812,216.277054 
	C665.215820,216.357193 665.207825,218.415436 665.223389,221.348068 
	C665.299194,235.657715 665.257996,249.967972 665.258606,265.220490 
M989.410156,269.016785 
	C991.831665,269.016785 994.253174,269.016785 996.534912,269.016785 
	C996.534912,266.158142 996.534912,264.084534 996.534912,261.536499 
	C990.049988,261.536499 983.915039,261.391510 977.791626,261.594818 
	C974.500244,261.704132 973.399597,260.506866 973.525757,257.277374 
	C973.726990,252.128036 973.578125,246.965012 973.577942,241.807785 
	C973.577698,233.541122 973.577942,225.274475 973.577942,217.152084 
	C965.461182,215.537674 965.258789,215.694077 965.257996,223.010147 
	C965.256592,236.485489 965.257629,249.960846 965.257629,263.436188 
	C965.257629,265.198364 965.257568,266.960541 965.257568,269.016785 
	C973.484497,269.016785 980.959778,269.016785 989.410156,269.016785 
M446.276245,329.500061 
	C446.276245,339.243469 446.276245,348.986877 446.276245,358.721985 
	C449.430573,358.721985 451.838715,358.721985 454.712433,358.721985 
	C454.712433,341.979218 454.715393,325.557709 454.710022,309.136230 
	C454.708893,305.628845 452.059357,306.497742 450.042389,306.350830 
	C447.747162,306.183594 446.199646,306.715607 446.248230,309.552979 
	C446.356354,315.867035 446.278625,322.184265 446.276245,329.500061 
M904.723694,264.268127 
	C904.723694,249.799942 904.629822,235.330719 904.792053,220.864349 
	C904.830933,217.397415 903.791016,216.229111 900.269348,216.239670 
	C896.728943,216.250305 896.205139,217.836685 896.229431,220.825699 
	C896.337646,234.128891 896.276245,247.433472 896.276184,260.737549 
	C896.276184,263.353638 896.276184,265.969727 896.276184,269.332520 
	C899.614075,267.727234 904.706177,272.359406 904.723694,264.268127 
M617.723755,230.513901 
	C617.723267,227.023361 617.559204,223.522949 617.768982,220.045105 
	C617.972595,216.669495 616.147278,216.316422 613.450378,216.288208 
	C610.640076,216.258820 609.192383,216.883713 609.220459,220.143265 
	C609.353821,235.600189 609.280518,251.058838 609.318237,266.516785 
	C609.320068,267.278595 609.673401,268.039581 609.833984,268.684082 
	C612.513916,268.684082 614.906982,268.684082 617.723328,268.684082 
	C617.723328,256.053101 617.723328,243.780930 617.723755,230.513901 
M832.863770,87.628181 
	C835.207397,86.462433 838.419250,85.885170 839.698486,83.997948 
	C841.806213,80.888359 840.505920,77.437561 837.066040,75.677872 
	C833.713928,73.963066 830.522827,74.723473 828.500305,78.101311 
	C826.535828,81.382385 828.025452,84.922806 832.863770,87.628181 
z"/>
<path fill="#4D72BE" opacity="1.000000" stroke="none" 
	d="
M297.000000,368.998566 
	C206.183853,368.979706 115.867706,368.961121 25.551567,368.930542 
	C25.245186,368.930420 24.938856,368.756439 24.318604,368.568634 
	C24.318604,253.617371 24.318604,138.581482 24.318604,23.273575 
	C148.686569,23.273575 272.936890,23.273575 397.592957,23.273575 
	C397.592957,138.204681 397.592957,253.240845 397.592957,368.998566 
	C364.330170,368.998566 330.915100,368.998566 297.000000,368.998566 
z"/>
<path fill="#5377C0" opacity="1.000000" stroke="none" 
	d="
M537.956909,176.319183 
	C534.496155,171.174179 531.381470,166.248093 527.930176,161.570343 
	C525.469360,158.234985 522.255676,155.904053 516.982971,157.057800 
	C516.982971,164.083160 516.982971,171.282150 516.982971,178.736954 
	C513.885010,178.736954 511.480743,178.736954 508.802277,178.736954 
	C508.802277,161.427216 508.802277,144.332520 508.802277,125.926888 
	C516.028198,126.573982 523.317200,126.171516 529.953247,128.061676 
	C540.627808,131.102097 542.783508,144.844162 534.358337,152.171463 
	C533.619629,152.813889 532.833191,153.401459 532.299194,153.829819 
	C537.722412,161.670410 543.052124,169.375885 548.816711,177.709991 
	C550.684509,173.483490 552.317200,169.893692 553.864929,166.267624 
	C559.020752,154.188263 564.157349,142.100632 569.273193,130.004257 
	C570.203186,127.805168 571.101807,125.222847 574.072571,126.259926 
	C575.754822,126.847206 577.623840,128.390106 578.353455,129.985291 
	C585.673096,145.989059 592.773560,162.093124 599.963806,178.231918 
	C592.302307,179.995773 591.460815,180.120361 589.404541,173.409164 
	C586.925720,165.318726 582.408569,162.936661 574.156067,163.581573 
	C563.381592,164.423569 563.142761,163.714706 559.170410,174.002548 
	C557.689026,177.839081 555.809326,179.620270 551.593689,179.086655 
	C548.643372,178.713226 545.575562,179.273499 542.623169,178.908310 
	C541.065613,178.715652 539.642761,177.434204 537.956909,176.319183 
M518.555359,149.067551 
	C527.234070,149.047913 531.105896,146.569901 530.951660,141.133728 
	C530.798523,135.736237 526.675842,133.399277 518.061646,133.858368 
	C517.789490,133.872864 517.532593,134.172318 516.531433,134.804123 
	C516.877625,139.218292 517.257019,144.056671 518.555359,149.067551 
M567.515320,154.233368 
	C568.069641,154.914429 568.597656,156.157928 569.182556,156.185287 
	C572.982971,156.363113 576.795776,156.276550 581.458862,156.276550 
	C578.850525,150.409058 576.542786,145.217789 573.803406,139.055511 
	C571.498230,144.634323 569.669189,149.060791 567.515320,154.233368 
z"/>
<path fill="#5377C0" opacity="1.000000" stroke="none" 
	d="
M597.841919,222.817810 
	C593.487366,228.106430 589.545105,233.285767 585.164978,238.063751 
	C582.621887,240.837875 582.551453,242.742203 585.058167,245.576553 
	C590.458191,251.682312 595.521973,258.085999 600.700256,264.386749 
	C601.718872,265.626129 602.633545,266.950897 603.789185,268.494049 
	C597.766418,269.897675 593.387451,269.116852 589.850098,263.741211 
	C586.310364,258.361938 581.707764,253.682022 577.076904,248.099838 
	C572.389832,253.661438 567.708069,258.771484 563.568970,264.288727 
	C560.925293,267.812744 557.940491,268.749054 553.625916,269.243713 
	C545.127930,270.217957 540.125793,267.388580 538.227783,259.060699 
	C537.267273,254.846085 534.705994,252.930283 530.325623,253.782211 
	C530.165222,253.813400 529.989929,253.808609 529.827454,253.782959 
	C519.236633,252.110718 511.234863,254.268005 508.666901,266.506744 
	C508.327240,268.125580 503.577484,268.819031 500.870178,269.941071 
	C500.551422,269.463196 500.232697,268.985352 499.913940,268.507507 
	C500.385834,267.159821 500.783722,265.780670 501.341034,264.469269 
	C507.646484,249.631073 513.906128,234.772293 520.400085,220.016785 
	C521.106873,218.410736 523.006653,216.858337 524.698853,216.261703 
	C527.638916,215.225098 528.511414,217.738434 529.495056,219.963928 
	C536.392395,235.568787 543.369751,251.138275 550.617310,267.382111 
	C557.487305,259.133972 564.042114,251.430649 570.301392,243.494232 
	C570.934875,242.690994 570.262573,240.108170 569.384338,238.987534 
	C564.663513,232.963837 559.679077,227.146973 554.801941,221.245255 
	C553.775146,220.002792 552.816711,218.703888 551.476990,216.981155 
	C556.972778,215.976944 561.246521,215.653564 564.675354,220.635086 
	C568.229980,225.799469 572.572510,230.421585 577.016113,235.822586 
	C581.208435,230.760010 585.514038,226.357742 588.846985,221.312851 
	C592.218201,216.210052 596.450012,215.682098 602.583801,217.029282 
	C600.868896,219.123199 599.469666,220.831635 597.841919,222.817810 
M528.109436,236.442062 
	C527.100769,234.298203 526.092102,232.154343 524.703613,229.203293 
	C522.168640,235.388000 520.064575,240.521500 517.799133,246.048645 
	C522.829529,246.048645 527.222229,246.048645 532.277954,246.048645 
	C530.868469,242.784317 529.647400,239.956238 528.109436,236.442062 
z"/>
<path fill="#5477C1" opacity="1.000000" stroke="none" 
	d="
M624.887329,313.046936 
	C631.689636,328.399628 638.350708,343.400665 645.041870,358.469604 
	C639.432556,359.976471 635.515747,359.227722 634.091492,353.211456 
	C632.322510,345.738831 628.025513,342.893616 619.875244,343.557281 
	C608.496765,344.483856 608.314758,343.740356 603.898682,354.724976 
	C602.586304,357.989380 600.923523,359.193298 597.333191,359.110413 
	C586.208679,358.853607 575.074402,359.016479 563.724243,359.016479 
	C563.540405,357.559509 563.279297,356.444427 563.277222,355.328888 
	C563.249512,340.513062 563.317139,325.696747 563.208435,310.881653 
	C563.186523,307.888885 563.684204,306.336456 567.230164,306.300446 
	C570.871887,306.263519 571.689087,307.641663 571.641663,310.989594 
	C571.476624,322.640198 571.754883,334.298645 571.485107,345.945374 
	C571.386597,350.199432 572.366394,352.027008 576.967285,351.626801 
	C581.593445,351.224426 586.285095,351.441040 590.941345,351.593353 
	C592.522095,351.645081 594.082275,352.327118 596.003296,352.809296 
	C601.739380,339.438080 607.733826,325.383087 613.817261,311.366669 
	C614.791687,309.121490 614.801880,306.183838 618.669189,306.018188 
	C622.837708,305.839691 622.810608,309.066925 624.084290,311.353485 
	C624.326721,311.788635 624.526611,312.247406 624.887329,313.046936 
M615.809937,326.334717 
	C614.523132,329.445312 613.236389,332.555908 611.824036,335.970093 
	C616.938232,335.970093 621.295349,335.970093 626.324768,335.970093 
	C623.799683,330.299255 621.507690,325.151733 618.842407,319.165894 
	C617.606628,322.033264 616.832581,323.829254 615.809937,326.334717 
z"/>
<path fill="#5175BF" opacity="1.000000" stroke="none" 
	d="
M581.145630,83.004669 
	C578.142761,77.774139 575.494995,72.764359 572.420532,68.031792 
	C569.948181,64.226067 566.297485,62.620144 561.212219,64.157784 
	C561.212219,71.583481 561.212219,79.011963 561.212219,86.718536 
	C557.323425,86.718536 553.919922,86.718536 550.215210,86.718536 
	C550.215210,68.035744 550.215210,49.480110 550.215210,31.106098 
	C559.005066,31.106098 567.661743,30.481277 576.174133,31.320318 
	C582.093201,31.903740 586.625061,36.066666 587.847168,42.225910 
	C589.325073,49.674000 587.635803,56.203506 580.802612,59.607246 
	C585.999817,68.549644 591.091553,77.310593 596.183228,86.071541 
	C590.828979,85.534416 584.799133,90.427231 581.145630,83.004669 
M574.033691,41.290592 
	C570.671631,40.606514 567.329590,39.723572 563.933105,39.381252 
	C563.106506,39.297947 561.376038,40.936260 561.303833,41.878235 
	C561.003296,45.798077 561.177490,49.754322 561.177490,54.164688 
	C566.426819,53.878983 571.524414,55.619381 575.060608,50.973583 
	C577.326416,47.996712 576.963623,44.763103 574.033691,41.290592 
z"/>
<path fill="#5175BF" opacity="1.000000" stroke="none" 
	d="
M673.716675,77.640831 
	C679.820740,62.830227 685.825562,48.393822 691.678711,33.896191 
	C692.672058,31.435797 693.837952,29.705469 696.693604,30.357893 
	C699.797791,31.067110 703.870544,28.217695 705.920593,32.879082 
	C713.555115,50.238445 721.216980,67.585770 728.843079,84.948807 
	C729.024841,85.362648 728.906921,85.908104 728.956238,87.000923 
	C725.775696,87.000923 722.630676,87.336884 719.619812,86.847542 
	C718.279602,86.629715 716.449768,84.925697 716.140198,83.594391 
	C714.121033,74.910927 708.897034,71.672348 700.302246,73.476395 
	C699.823486,73.576897 699.287537,73.575478 698.808044,73.476601 
	C690.193115,71.700111 684.905518,74.874474 683.335571,83.743591 
	C682.887756,86.273300 681.329712,87.269760 678.697937,87.055161 
	C676.059753,86.840042 673.390381,87.007896 669.878662,87.007896 
	C671.248779,83.659019 672.407593,80.826721 673.716675,77.640831 
M704.341797,56.131451 
	C702.742615,52.439236 701.143494,48.747017 699.042786,43.896767 
	C696.513550,50.287102 694.452820,55.432068 692.450439,60.599667 
	C691.993042,61.779976 691.737549,63.038486 691.333191,64.457169 
	C696.872009,64.457169 702.051086,64.457169 707.764282,64.457169 
	C706.626038,61.622818 705.658569,59.213772 704.341797,56.131451 
z"/>
<path fill="#5175BF" opacity="1.000000" stroke="none" 
	d="
M530.179321,84.030251 
	C525.727356,73.489388 525.727356,73.489388 514.848938,73.489380 
	C514.182556,73.489380 513.493408,73.601730 512.853149,73.472397 
	C504.282318,71.741104 499.042603,74.795967 497.196350,83.667557 
	C496.912720,85.030449 494.417938,86.505524 492.719666,86.867317 
	C490.180054,87.408348 487.439880,87.007851 484.281464,87.007851 
	C484.741425,85.461708 484.993164,84.244621 485.456299,83.114166 
	C492.077057,66.954910 498.772186,50.825924 505.326172,34.639744 
	C506.496674,31.749016 507.742432,29.771986 511.383392,30.263418 
	C514.936584,30.743000 518.613708,29.225164 520.736084,34.348522 
	C527.418091,50.479053 534.709839,66.356888 541.742065,82.342827 
	C542.320618,83.658020 542.722534,85.050903 543.626526,87.585022 
	C538.685364,85.553268 533.671875,89.800064 530.179321,84.030251 
M506.335114,60.794563 
	C506.042053,61.993233 505.748993,63.191898 505.464874,64.354057 
	C511.008301,64.354057 516.167297,64.354057 521.830139,64.354057 
	C519.230652,58.250195 516.856750,52.653313 514.455872,47.068016 
	C514.163940,46.388802 513.727112,45.771877 512.853882,44.246490 
	C510.572418,50.102757 508.623291,55.105961 506.335114,60.794563 
z"/>
<path fill="#5175BF" opacity="1.000000" stroke="none" 
	d="
M630.448303,35.383644 
	C634.379578,28.019897 640.789551,30.771608 647.792175,30.393152 
	C640.423706,39.775848 633.737549,48.289753 626.832031,57.082958 
	C635.641907,66.787766 644.327576,76.355682 654.000549,87.011185 
	C646.064697,86.535393 639.332397,89.108597 633.835083,81.716675 
	C628.352295,74.344215 621.437378,68.036812 614.293457,60.339172 
	C614.293457,69.870621 614.293457,78.093063 614.293457,86.658348 
	C610.459595,86.658348 607.055359,86.658348 603.281494,86.658348 
	C603.281494,68.172028 603.281494,49.619804 603.281494,30.695652 
	C606.633789,30.695652 610.027893,30.695652 613.853027,30.695652 
	C613.853027,38.498650 613.853027,46.246525 613.853027,53.994404 
	C614.274963,54.236584 614.696899,54.478767 615.118896,54.720947 
	C620.149475,48.366806 625.180115,42.012661 630.448303,35.383644 
z"/>
<path fill="#5377C0" opacity="1.000000" stroke="none" 
	d="
M784.472717,30.418430 
	C794.086060,30.338512 803.243652,30.323071 812.401184,30.317387 
	C820.512390,30.312353 820.512390,30.317144 819.241211,39.556946 
	C811.159363,39.556946 802.947754,39.556946 794.470520,39.556946 
	C794.470520,44.371532 794.470520,48.458969 794.470520,53.340988 
	C802.403564,53.340988 810.256104,53.340988 818.314819,53.340988 
	C818.482544,55.392776 818.531677,56.687077 818.703674,57.964863 
	C819.184692,61.540867 817.983154,63.069153 814.069641,62.882542 
	C807.638306,62.575867 801.181580,62.799431 794.466248,62.799431 
	C794.466248,67.965530 794.466248,72.553688 794.466248,77.815674 
	C802.905945,77.815674 811.275513,77.815674 819.869507,77.815674 
	C819.869507,81.086952 819.869507,83.690788 819.869507,86.655350 
	C807.796631,86.655350 795.731934,86.655350 783.397461,86.655350 
	C783.270813,86.194786 782.961914,85.593231 782.960754,84.991074 
	C782.926758,67.841393 782.904968,50.691593 782.962830,33.542091 
	C782.966309,32.522602 783.649841,31.505409 784.472717,30.418430 
z"/>
<path fill="#5176C0" opacity="1.000000" stroke="none" 
	d="
M446.916809,61.999992 
	C446.916779,51.369862 446.916779,41.239731 446.916779,29.921446 
	C456.621735,30.404894 466.087860,30.159479 475.303619,31.560698 
	C482.774963,32.696697 487.310181,40.378311 486.829559,48.084976 
	C486.358368,55.639919 481.291992,61.676300 473.694977,62.917404 
	C468.818085,63.714111 463.808685,63.699688 458.348694,64.084824 
	C458.348694,71.519882 458.348694,78.931488 458.348694,86.670654 
	C454.440033,86.670654 451.038788,86.670654 446.916840,86.670654 
	C446.916840,78.652069 446.916840,70.576027 446.916809,61.999992 
M458.164154,50.321472 
	C457.777069,53.262573 458.860260,54.719353 462.020355,54.386826 
	C464.334503,54.143318 466.719666,54.379505 468.989594,53.954887 
	C472.742035,53.252945 474.800110,50.690998 474.820496,46.918385 
	C474.839996,43.311848 472.750092,40.716072 469.279510,40.212017 
	C465.780334,39.703800 462.149811,40.100101 458.163727,40.100101 
	C458.163727,43.436062 458.163727,46.406101 458.164154,50.321472 
z"/>
<path fill="#5176C0" opacity="1.000000" stroke="none" 
	d="
M465.144104,337.999847 
	C465.144135,327.385681 465.144135,317.271454 465.144135,307.106628 
	C469.744598,305.796326 473.041107,306.130920 475.915039,310.154816 
	C480.060791,315.959442 484.838104,321.313019 489.791504,327.407318 
	C494.455444,321.632629 498.925812,316.127472 503.362366,310.595215 
	C507.084076,305.954315 507.066650,305.940338 513.804138,306.968079 
	C513.804138,324.119629 513.804138,341.319305 513.804138,358.764709 
	C511.332092,358.764709 509.061615,358.764709 506.323364,358.764709 
	C506.323364,346.182373 506.323364,333.609344 506.323364,321.036346 
	C505.997437,320.888977 505.671539,320.741608 505.345612,320.594269 
	C500.414093,326.684875 495.482574,332.775513 489.758270,339.845276 
	C484.323669,333.147034 479.207397,326.841125 473.197510,319.433838 
	C473.197510,333.411346 473.197510,345.937622 473.197510,358.730621 
	C470.450256,358.730621 468.185150,358.730621 465.144043,358.730621 
	C465.144043,352.006958 465.144043,345.253387 465.144104,337.999847 
z"/>
<path fill="#5176C0" opacity="1.000000" stroke="none" 
	d="
M495.112549,240.000015 
	C495.112579,249.793381 495.112579,259.086761 495.112579,268.692322 
	C492.356232,268.692322 489.974182,268.692322 487.082275,268.692322 
	C487.082275,255.998322 487.082275,243.469879 487.082275,229.656799 
	C481.312866,236.794022 476.368683,242.910370 470.820801,249.773560 
	C465.291992,243.037384 460.195312,236.827698 454.361145,229.719452 
	C454.361145,243.307770 454.361145,255.813477 454.361145,268.659973 
	C451.480560,268.659973 449.101349,268.659973 446.429932,268.659973 
	C446.429932,251.448792 446.429932,234.371078 446.429932,217.128616 
	C450.828033,215.539917 454.146942,216.244385 457.104553,220.384186 
	C461.224792,226.151367 465.981171,231.464066 470.799164,237.381317 
	C475.496063,231.572952 479.887085,226.179504 484.236664,220.752853 
	C487.975769,216.087799 487.954865,216.071045 495.112518,216.881927 
	C495.112518,224.345459 495.112518,231.922745 495.112549,240.000015 
z"/>
<path fill="#5376C0" opacity="1.000000" stroke="none" 
	d="
M450.295227,135.336899 
	C465.604279,119.579147 492.659943,124.373749 499.009979,143.657211 
	C503.192535,156.358521 498.592163,169.220917 487.567230,175.650543 
	C475.637939,182.607651 458.994965,180.292603 450.511627,170.496078 
	C442.039978,160.713043 441.855438,146.423370 450.295227,135.336899 
M470.757751,171.996918 
	C484.060760,171.914108 492.727814,163.427979 492.022858,151.175659 
	C491.395447,140.270370 481.637451,132.763321 469.517700,133.861877 
	C460.374908,134.690598 453.308899,142.018600 452.714966,151.287643 
	C452.010162,162.287216 457.994873,169.485641 470.757751,171.996918 
z"/>
<path fill="#5376C0" opacity="1.000000" stroke="none" 
	d="
M713.513916,266.654541 
	C701.555054,259.785309 696.648987,248.022217 700.097656,235.085587 
	C703.130920,223.707321 713.478577,216.182037 726.218933,215.914154 
	C737.625671,215.674316 746.877686,219.736572 752.296448,230.009613 
	C757.210266,239.325195 756.912048,248.950806 750.967163,257.876556 
	C743.572571,268.978729 727.960632,272.624298 713.513916,266.654541 
M730.990356,223.927139 
	C729.162964,223.883530 727.329163,223.719421 725.509155,223.815506 
	C711.660095,224.546539 703.284302,239.052139 709.513733,251.462814 
	C713.452576,259.310028 722.527954,263.571625 731.369934,261.725800 
	C740.104492,259.902405 746.613525,252.547058 747.032715,244.026627 
	C747.517517,234.171921 742.341431,227.358658 730.990356,223.927139 
z"/>
<path fill="#5376C0" opacity="1.000000" stroke="none" 
	d="
M740.786438,43.186016 
	C744.004883,50.534077 747.078796,57.531593 750.579712,65.501083 
	C753.641602,58.432148 756.364746,52.153378 759.080505,45.871403 
	C760.136536,43.428696 761.173157,40.977604 762.223206,38.532307 
	C766.159424,29.366446 766.160095,29.366743 777.326355,30.806425 
	C776.873901,32.228321 776.566895,33.587368 776.022705,34.843674 
	C768.883057,51.327282 761.750854,67.814568 754.473145,84.237259 
	C753.839966,85.666115 752.025818,87.731506 751.056213,87.582001 
	C749.569214,87.352699 747.773376,85.715965 747.087463,84.225922 
	C739.575378,67.906921 732.249451,51.502197 724.888123,35.113941 
	C724.298767,33.801659 723.822693,32.438461 722.998840,30.351196 
	C726.877502,30.351196 730.171570,30.111296 733.394470,30.484886 
	C734.482300,30.610979 735.711304,32.125675 736.317444,33.295151 
	C737.921936,36.390785 739.221191,39.644600 740.786438,43.186016 
z"/>
<path fill="#4F74BF" opacity="1.000000" stroke="none" 
	d="
M692.093994,358.572327 
	C680.852661,345.818298 669.924866,333.315582 658.212402,319.915070 
	C658.212402,333.487030 658.212402,345.979950 658.212402,358.730530 
	C655.582031,358.730530 653.506958,358.730530 651.091675,358.730530 
	C651.091675,341.421265 651.091675,324.226898 651.091675,307.023315 
	C655.095093,305.543732 657.736145,306.888214 660.310791,309.929749 
	C669.558289,320.854279 679.037964,331.582245 688.423157,342.390289 
	C689.165466,343.245148 689.856506,344.144531 691.568237,346.248718 
	C691.568237,332.126068 691.568237,319.603607 691.568237,306.769958 
	C694.255981,306.769958 696.339966,306.769958 698.792725,306.769958 
	C698.792725,324.059967 698.792725,341.253845 698.792725,358.823639 
	C696.610901,358.823639 694.509277,358.823639 692.093994,358.572327 
z"/>
<path fill="#5477C1" opacity="1.000000" stroke="none" 
	d="
M804.860718,232.801666 
	C806.960449,227.858978 808.743408,223.181274 811.003662,218.746872 
	C811.635437,217.507278 813.638306,216.404800 815.080688,216.312836 
	C816.296753,216.235306 818.269958,217.414963 818.784363,218.548172 
	C826.266174,235.031387 833.558472,251.600601 840.917725,268.198120 
	C833.472229,270.033600 832.468445,270.063995 830.415710,263.452118 
	C827.929626,255.444626 823.517700,252.899155 815.194031,253.576233 
	C804.393494,254.454803 803.947327,253.650681 800.419861,263.524048 
	C798.402893,269.169525 795.140442,269.921631 789.670532,268.421814 
	C794.709534,256.618195 799.716980,244.888443 804.860718,232.801666 
M818.776550,237.796661 
	C817.528198,235.207367 816.279846,232.618073 814.671875,229.282928 
	C812.178711,235.374695 810.076843,240.510361 807.807251,246.055862 
	C812.816040,246.055862 817.209961,246.055862 822.278687,246.055862 
	C821.078247,243.262344 820.057495,240.887054 818.776550,237.796661 
z"/>
<path fill="#5477C1" opacity="1.000000" stroke="none" 
	d="
M944.252258,254.000000 
	C942.175232,253.838745 940.482117,254.007187 938.852173,253.759583 
	C928.266113,252.151505 920.244324,254.228806 917.676697,266.489166 
	C917.334229,268.124420 912.574402,268.834625 909.860291,269.973206 
	C909.546204,269.487244 909.232178,269.001251 908.918152,268.515289 
	C909.382751,267.173737 909.769836,265.799225 910.323853,264.495667 
	C916.628174,249.659912 922.872742,234.797272 929.398621,220.059265 
	C930.140381,218.384033 932.419800,216.572952 934.136169,216.410782 
	C935.450439,216.286606 937.621948,218.381134 938.350708,219.974350 
	C945.668823,235.972626 952.767395,252.071365 959.952515,268.197449 
	C952.453735,270.026550 952.141968,269.851776 949.237610,263.509857 
	C947.790649,260.350342 946.194153,257.259308 944.252258,254.000000 
M930.156555,237.704819 
	C929.129883,240.382568 928.103210,243.060333 926.993103,245.955750 
	C931.960388,245.955750 936.310547,245.955750 941.318176,245.955750 
	C938.789490,240.279480 936.496399,235.131989 933.829651,229.145844 
	C932.402588,232.494598 931.439270,234.755310 930.156555,237.704819 
z"/>
<path fill="#5377C0" opacity="1.000000" stroke="none" 
	d="
M859.245544,225.964935 
	C849.622925,232.428833 846.430054,241.515472 850.292175,250.590866 
	C853.899841,259.068359 864.014282,263.869141 874.157532,261.501678 
	C878.592285,260.466614 882.832397,258.597931 887.171204,257.104248 
	C888.758911,264.718201 888.143433,265.807770 881.165100,267.881714 
	C866.345947,272.285950 853.402710,269.052490 845.818726,259.031952 
	C839.386658,250.533356 838.606689,241.194305 842.830200,231.734116 
	C847.016357,222.357498 854.793335,216.993057 864.998962,216.239700 
	C870.021240,215.868958 875.278931,216.688431 880.230530,217.832748 
	C887.575073,219.530090 887.499634,219.856613 886.725769,228.346848 
	C877.876831,224.797531 869.004761,221.345825 859.245544,225.964935 
z"/>
<path fill="#5376C0" opacity="1.000000" stroke="none" 
	d="
M549.490356,308.251495 
	C556.251282,312.705933 558.523560,318.251862 556.855408,325.548523 
	C555.483032,331.551727 550.800598,335.270752 543.337463,336.112671 
	C539.746582,336.517792 536.130920,336.703094 532.079956,337.023193 
	C532.079956,344.307983 532.079956,351.388489 532.079956,358.735535 
	C529.346375,358.735535 527.079468,358.735535 524.398193,358.735535 
	C524.398193,341.636292 524.398193,324.440338 524.398193,306.575195 
	C532.578308,306.537384 540.933716,305.162445 549.490356,308.251495 
M547.025085,316.432068 
	C542.602051,312.566010 537.462891,314.039612 532.317749,314.083496 
	C532.317749,319.215271 532.317749,323.948792 532.317749,329.088165 
	C535.204407,329.088165 537.828613,329.224792 540.434082,329.062134 
	C547.762085,328.604553 550.458862,323.967407 547.025085,316.432068 
z"/>
<path fill="#5A7CC3" opacity="1.000000" stroke="none" 
	d="
M763.306396,259.937775 
	C763.306396,246.795609 763.423157,234.143127 763.234009,221.495224 
	C763.177979,217.752029 763.970520,216.103912 768.162903,216.284027 
	C775.924988,216.617477 783.711731,216.379471 791.604919,216.379471 
	C791.604919,219.142883 791.604919,221.230896 791.604919,223.769104 
	C785.077026,223.769104 778.815308,223.769104 772.127625,223.769104 
	C772.127625,228.395157 772.127625,232.576218 772.127625,237.457703 
	C778.638428,237.457703 785.031677,237.457703 791.607605,237.457703 
	C791.607605,240.231735 791.607605,242.311035 791.607605,244.824066 
	C785.080688,244.824066 778.816162,244.824066 771.907593,244.824066 
	C771.907593,252.930893 771.907593,260.640625 771.907593,268.682617 
	C768.865906,268.682617 766.460999,268.682617 763.306152,268.682617 
	C763.306152,265.954468 763.306152,263.191833 763.306396,259.937775 
z"/>
<path fill="#577AC2" opacity="1.000000" stroke="none" 
	d="
M743.746948,313.844604 
	C739.002625,313.844818 734.725281,313.844818 729.928711,313.844818 
	C729.928711,329.096710 729.928711,343.813293 729.928711,358.770264 
	C727.131714,358.770264 724.865967,358.770264 722.040161,358.770264 
	C722.040161,344.059113 722.040161,329.351624 722.040161,313.949554 
	C715.811157,313.949554 710.113831,313.949554 704.206055,313.949554 
	C704.206055,311.147583 704.206055,309.046143 704.206055,306.628510 
	C718.750671,306.628510 733.130554,306.628510 747.916077,306.628510 
	C747.187744,309.598816 750.534668,314.023621 743.746948,313.844604 
z"/>
<path fill="#5477C1" opacity="1.000000" stroke="none" 
	d="
M604.257812,164.991318 
	C604.257812,154.013947 604.256653,143.534454 604.257935,133.054962 
	C604.258850,125.686829 604.388977,125.584709 612.577942,127.115463 
	C612.577942,133.735641 612.577881,140.501236 612.578003,147.266830 
	C612.578064,153.754135 612.752869,160.247986 612.510010,166.726181 
	C612.374268,170.347305 613.397766,171.801544 617.239685,171.614075 
	C623.191162,171.323685 629.167297,171.537445 635.510620,171.537445 
	C635.510620,174.034164 635.510620,176.097702 635.510620,178.599487 
	C625.477356,178.599487 615.265198,178.599487 604.257690,178.599487 
	C604.257690,174.335068 604.257690,169.912140 604.257812,164.991318 
z"/>
<path fill="#5477C1" opacity="1.000000" stroke="none" 
	d="
M628.257812,246.999878 
	C628.257812,238.682098 628.256592,230.864273 628.257935,223.046448 
	C628.259155,215.684509 628.397949,215.575668 636.577942,217.121964 
	C636.577942,224.074951 636.577881,231.173752 636.578003,238.272537 
	C636.578064,244.426987 636.758728,250.588745 636.510315,256.733154 
	C636.363464,260.364471 637.414490,261.799896 641.246643,261.613800 
	C647.197021,261.324829 653.171814,261.537476 659.513489,261.537476 
	C659.513489,264.051422 659.513489,266.116974 659.513489,268.602570 
	C649.474365,268.602570 639.260925,268.602570 628.257690,268.602570 
	C628.257690,261.667725 628.257690,254.583786 628.257812,246.999878 
z"/>
<path fill="#5477C1" opacity="1.000000" stroke="none" 
	d="
M665.258362,264.749268 
	C665.257996,249.967972 665.299194,235.657715 665.223389,221.348068 
	C665.207825,218.415436 665.215820,216.357193 669.257812,216.277054 
	C673.542542,216.192108 673.653809,218.319916 673.622375,221.514008 
	C673.509460,232.994202 673.758545,244.480515 673.484375,255.955261 
	C673.382385,260.220398 674.385925,261.955261 678.971924,261.635162 
	C684.736633,261.232819 690.550659,261.538208 696.614502,261.538208 
	C696.614502,264.183563 696.614502,266.265137 696.614502,268.987061 
	C686.780640,268.987061 677.019775,269.064087 667.266663,268.824860 
	C666.568237,268.807709 665.926636,266.476013 665.258362,264.749268 
z"/>
<path fill="#5477C1" opacity="1.000000" stroke="none" 
	d="
M988.922607,269.016785 
	C980.959778,269.016785 973.484497,269.016785 965.257568,269.016785 
	C965.257568,266.960541 965.257629,265.198364 965.257629,263.436188 
	C965.257629,249.960846 965.256592,236.485489 965.257996,223.010147 
	C965.258789,215.694077 965.461182,215.537674 973.577942,217.152084 
	C973.577942,225.274475 973.577698,233.541122 973.577942,241.807785 
	C973.578125,246.965012 973.726990,252.128036 973.525757,257.277374 
	C973.399597,260.506866 974.500244,261.704132 977.791626,261.594818 
	C983.915039,261.391510 990.049988,261.536499 996.534912,261.536499 
	C996.534912,264.084534 996.534912,266.158142 996.534912,269.016785 
	C994.253174,269.016785 991.831665,269.016785 988.922607,269.016785 
z"/>
<path fill="#6081C5" opacity="1.000000" stroke="none" 
	d="
M446.276459,329.000122 
	C446.278625,322.184265 446.356354,315.867035 446.248230,309.552979 
	C446.199646,306.715607 447.747162,306.183594 450.042389,306.350830 
	C452.059357,306.497742 454.708893,305.628845 454.710022,309.136230 
	C454.715393,325.557709 454.712433,341.979218 454.712433,358.721985 
	C451.838715,358.721985 449.430573,358.721985 446.276245,358.721985 
	C446.276245,348.986877 446.276245,339.243469 446.276459,329.000122 
z"/>
<path fill="#6081C5" opacity="1.000000" stroke="none" 
	d="
M904.723022,264.735474 
	C904.706177,272.359406 899.614075,267.727234 896.276184,269.332520 
	C896.276184,265.969727 896.276184,263.353638 896.276184,260.737549 
	C896.276245,247.433472 896.337646,234.128891 896.229431,220.825699 
	C896.205139,217.836685 896.728943,216.250305 900.269348,216.239670 
	C903.791016,216.229111 904.830933,217.397415 904.792053,220.864349 
	C904.629822,235.330719 904.723694,249.799942 904.723022,264.735474 
z"/>
<path fill="#6081C5" opacity="1.000000" stroke="none" 
	d="
M617.723511,231.011322 
	C617.723328,243.780930 617.723328,256.053101 617.723328,268.684082 
	C614.906982,268.684082 612.513916,268.684082 609.833984,268.684082 
	C609.673401,268.039581 609.320068,267.278595 609.318237,266.516785 
	C609.280518,251.058838 609.353821,235.600189 609.220459,220.143265 
	C609.192383,216.883713 610.640076,216.258820 613.450378,216.288208 
	C616.147278,216.316422 617.972595,216.669495 617.768982,220.045105 
	C617.559204,223.522949 617.723267,227.023361 617.723511,231.011322 
z"/>
<path fill="#5377C0" opacity="1.000000" stroke="none" 
	d="
M832.500122,87.501755 
	C828.025452,84.922806 826.535828,81.382385 828.500305,78.101311 
	C830.522827,74.723473 833.713928,73.963066 837.066040,75.677872 
	C840.505920,77.437561 841.806213,80.888359 839.698486,83.997948 
	C838.419250,85.885170 835.207397,86.462433 832.500122,87.501755 
z"/>
<path fill="#FDFEFE" opacity="1.000000" stroke="none" 
	d="
M518.095947,148.981293 
	C517.257019,144.056671 516.877625,139.218292 516.531433,134.804123 
	C517.532593,134.172318 517.789490,133.872864 518.061646,133.858368 
	C526.675842,133.399277 530.798523,135.736237 530.951660,141.133728 
	C531.105896,146.569901 527.234070,149.047913 518.095947,148.981293 
z"/>
<path fill="#FAFBFD" opacity="1.000000" stroke="none" 
	d="
M567.677734,153.860321 
	C569.669189,149.060791 571.498230,144.634323 573.803406,139.055511 
	C576.542786,145.217789 578.850525,150.409058 581.458862,156.276550 
	C576.795776,156.276550 572.982971,156.363113 569.182556,156.185287 
	C568.597656,156.157928 568.069641,154.914429 567.677734,153.860321 
z"/>
<path fill="#FAFBFD" opacity="1.000000" stroke="none" 
	d="
M528.267883,236.785110 
	C529.647400,239.956238 530.868469,242.784317 532.277954,246.048645 
	C527.222229,246.048645 522.829529,246.048645 517.799133,246.048645 
	C520.064575,240.521500 522.168640,235.388000 524.703613,229.203293 
	C526.092102,232.154343 527.100769,234.298203 528.267883,236.785110 
z"/>
<path fill="#FAFBFD" opacity="1.000000" stroke="none" 
	d="
M615.934204,325.979980 
	C616.832581,323.829254 617.606628,322.033264 618.842407,319.165894 
	C621.507690,325.151733 623.799683,330.299255 626.324768,335.970093 
	C621.295349,335.970093 616.938232,335.970093 611.824036,335.970093 
	C613.236389,332.555908 614.523132,329.445312 615.934204,325.979980 
z"/>
<path fill="#FAFBFD" opacity="1.000000" stroke="none" 
	d="
M574.318115,41.555542 
	C576.963623,44.763103 577.326416,47.996712 575.060608,50.973583 
	C571.524414,55.619381 566.426819,53.878983 561.177490,54.164688 
	C561.177490,49.754322 561.003296,45.798077 561.303833,41.878235 
	C561.376038,40.936260 563.106506,39.297947 563.933105,39.381252 
	C567.329590,39.723572 570.671631,40.606514 574.318115,41.555542 
z"/>
<path fill="#F4F6FB" opacity="1.000000" stroke="none" 
	d="
M704.516479,56.468086 
	C705.658569,59.213772 706.626038,61.622818 707.764282,64.457169 
	C702.051086,64.457169 696.872009,64.457169 691.333191,64.457169 
	C691.737549,63.038486 691.993042,61.779976 692.450439,60.599667 
	C694.452820,55.432068 696.513550,50.287102 699.042786,43.896767 
	C701.143494,48.747017 702.742615,52.439236 704.516479,56.468086 
z"/>
<path fill="#F4F6FB" opacity="1.000000" stroke="none" 
	d="
M506.504639,60.451866 
	C508.623291,55.105961 510.572418,50.102757 512.853882,44.246490 
	C513.727112,45.771877 514.163940,46.388802 514.455872,47.068016 
	C516.856750,52.653313 519.230652,58.250195 521.830139,64.354057 
	C516.167297,64.354057 511.008301,64.354057 505.464874,64.354057 
	C505.748993,63.191898 506.042053,61.993233 506.504639,60.451866 
z"/>
<path fill="#FAFBFD" opacity="1.000000" stroke="none" 
	d="
M458.163940,49.848808 
	C458.163727,46.406101 458.163727,43.436062 458.163727,40.100101 
	C462.149811,40.100101 465.780334,39.703800 469.279510,40.212017 
	C472.750092,40.716072 474.839996,43.311848 474.820496,46.918385 
	C474.800110,50.690998 472.742035,53.252945 468.989594,53.954887 
	C466.719666,54.379505 464.334503,54.143318 462.020355,54.386826 
	C458.860260,54.719353 457.777069,53.262573 458.163940,49.848808 
z"/>
<path fill="#FDFEFE" opacity="1.000000" stroke="none" 
	d="
M470.327698,171.975922 
	C457.994873,169.485641 452.010162,162.287216 452.714966,151.287643 
	C453.308899,142.018600 460.374908,134.690598 469.517700,133.861877 
	C481.637451,132.763321 491.395447,140.270370 492.022858,151.175659 
	C492.727814,163.427979 484.060760,171.914108 470.327698,171.975922 
z"/>
<path fill="#FDFEFE" opacity="1.000000" stroke="none" 
	d="
M731.417908,223.981354 
	C742.341431,227.358658 747.517517,234.171921 747.032715,244.026627 
	C746.613525,252.547058 740.104492,259.902405 731.369934,261.725800 
	C722.527954,263.571625 713.452576,259.310028 709.513733,251.462814 
	C703.284302,239.052139 711.660095,224.546539 725.509155,223.815506 
	C727.329163,223.719421 729.162964,223.883530 731.417908,223.981354 
z"/>
<path fill="#FAFBFD" opacity="1.000000" stroke="none" 
	d="
M818.906616,238.154205 
	C820.057495,240.887054 821.078247,243.262344 822.278687,246.055862 
	C817.209961,246.055862 812.816040,246.055862 807.807251,246.055862 
	C810.076843,240.510361 812.178711,235.374695 814.671875,229.282928 
	C816.279846,232.618073 817.528198,235.207367 818.906616,238.154205 
z"/>
<path fill="#FAFBFD" opacity="1.000000" stroke="none" 
	d="
M930.316223,237.360413 
	C931.439270,234.755310 932.402588,232.494598 933.829651,229.145844 
	C936.496399,235.131989 938.789490,240.279480 941.318176,245.955750 
	C936.310547,245.955750 931.960388,245.955750 926.993103,245.955750 
	C928.103210,243.060333 929.129883,240.382568 930.316223,237.360413 
z"/>
<path fill="#FDFEFE" opacity="1.000000" stroke="none" 
	d="
M547.272583,316.739868 
	C550.458862,323.967407 547.762085,328.604553 540.434082,329.062134 
	C537.828613,329.224792 535.204407,329.088165 532.317749,329.088165 
	C532.317749,323.948792 532.317749,319.215271 532.317749,314.083496 
	C537.462891,314.039612 542.602051,312.566010 547.272583,316.739868 
z"/>
</svg>